<?xml version="1.0" encoding="UTF-8" standalone="no"?>
<svg
   xmlns:dc="http://purl.org/dc/elements/1.1/"
   xmlns:cc="http://creativecommons.org/ns#"
   xmlns:rdf="http://www.w3.org/1999/02/22-rdf-syntax-ns#"
   xmlns:svg="http://www.w3.org/2000/svg"
   xmlns="http://www.w3.org/2000/svg"
   xmlns:sodipodi="http://sodipodi.sourceforge.net/DTD/sodipodi-0.dtd"
   xmlns:inkscape="http://www.inkscape.org/namespaces/inkscape"
   version="1.0"
   width="417.53101"
   height="324.59399"
   id="svg2275"
   sodipodi:version="0.32"
   inkscape:version="0.46"
   sodipodi:docname="BlankMap-USA-Midwest.svg"
   sodipodi:docbase="C:\Users\Adam\Desktop"
   inkscape:output_extension="org.inkscape.output.svg.inkscape">
  <metadata
     id="metadata2625">
    <rdf:RDF>
      <cc:Work
         rdf:about="">
        <dc:format>image/svg+xml</dc:format>
        <dc:type
           rdf:resource="http://purl.org/dc/dcmitype/StillImage" />
      </cc:Work>
    </rdf:RDF>
  </metadata>
  <defs
     id="defs2623">
    <inkscape:perspective
       sodipodi:type="inkscape:persp3d"
       inkscape:vp_x="0 : 296.39499 : 1"
       inkscape:vp_y="0 : 1000 : 0"
       inkscape:vp_z="958.69 : 296.39499 : 1"
       inkscape:persp3d-origin="479.345 : 197.59666 : 1"
       id="perspective2892" />
  </defs>
  <sodipodi:namedview
     inkscape:window-height="753"
     inkscape:window-width="1024"
     inkscape:pageshadow="2"
     inkscape:pageopacity="0.0"
     guidetolerance="10.0"
     gridtolerance="10.0"
     objecttolerance="10.0"
     borderopacity="1.0"
     bordercolor="#666666"
     pagecolor="#ffffff"
     id="base"
     inkscape:zoom="0.99941554"
     inkscape:cx="313.91284"
     inkscape:cy="133.68837"
     inkscape:window-x="0"
     inkscape:window-y="0"
     inkscape:current-layer="svg2275"
     showgrid="false" />
  <path
     style="fill:#cccccc"
     id="OH"
     d="M 402.66835,157.61034 L 395.40224,161.94258 L 391.43987,164.29567 L 387.9728,168.16146 L 383.84534,172.19533 L 380.54337,173.03572 L 377.5716,173.53995 L 371.95825,176.2292 L 369.81197,176.39728 L 366.34491,173.2038 L 361.06175,173.87611 L 358.42018,172.36341 L 355.98847,170.95895 L 350.99186,171.69029 L 340.59064,173.37107 L 332.6659,174.63166 L 333.98669,189.84273 L 335.80278,204.12937 L 338.44435,228.50071 L 339.0222,234.46749 L 343.23222,234.21537 L 345.7087,233.37498 L 348.68048,235.05576 L 350.33146,239.59387 L 356.27502,239.93002 L 358.0911,241.77889 L 360.23738,241.94697 L 362.71387,240.43427 L 365.85074,240.9385 L 367.17153,242.4512 L 369.97821,239.76194 L 371.7943,238.41732 L 373.44528,238.41732 L 374.10567,241.27466 L 375.92177,242.28312 L 379.47138,244.72025 L 381.70021,244.63621 L 383.68141,243.79582 L 383.84651,240.9385 L 385.49749,239.42579 L 385.66259,234.21537 L 386.65318,230.18149 L 387.97397,229.50918 L 389.29476,230.68572 L 389.79006,232.53458 L 391.60614,231.52611 L 392.10144,229.84534 L 390.94575,227.99648 L 390.94575,225.4753 L 391.93634,224.13068 L 394.24773,220.60104 L 395.56851,219.08834 L 397.7148,219.59257 L 400.02618,217.91178 L 403.16305,214.38215 L 405.47445,210.34826 L 405.80463,204.46554 L 406.29993,199.25511 L 406.29993,194.38084 L 405.14424,191.18736 L 406.13483,189.67465 L 407.53847,188.91811 L 405.64013,177.74071 L 402.66835,157.61034 z" />
  <path
     style="fill:#cccccc"
     id="MI"
     d="M 248.62268,40.295878 L 250.49056,38.156593 L 252.70866,37.324647 L 258.19556,33.283763 L 260.53042,32.689515 L 260.99739,33.16492 L 255.74398,38.513144 L 252.35844,40.533575 L 250.25708,41.484374 L 248.62268,40.295878 z M 336.62971,73.699451 L 337.29009,76.304661 L 340.59207,76.472741 L 341.91287,75.212151 C 341.91287,75.212151 341.83031,73.699451 341.50012,73.531371 C 341.16992,73.363301 339.84913,71.598471 339.84913,71.598471 L 337.6203,71.850581 L 335.9693,72.018661 L 335.63911,73.195221 L 336.62971,73.699451 z M 367.3355,139.25206 L 364.03353,130.68008 L 361.72215,121.26772 L 359.24567,117.90616 L 356.6041,116.0573 L 354.95311,117.23385 L 350.99075,119.08271 L 349.00957,124.29312 L 346.20289,128.15891 L 345.0472,128.83123 L 343.56132,128.15891 C 343.56132,128.15891 340.91974,126.64621 341.08484,125.9739 C 341.24994,125.30159 341.58014,120.76348 341.58014,120.76348 L 345.0472,119.41886 L 345.8727,115.88923 L 346.5331,113.19998 L 349.00957,111.5192 L 348.67937,101.09836 L 347.02838,98.745271 L 345.70761,97.904881 L 344.8821,95.719861 L 345.70761,94.879471 L 347.35858,95.215631 L 347.52369,93.534851 L 345.0472,91.181761 L 343.72642,88.492511 L 341.08484,88.492511 L 336.46209,86.979811 L 330.84873,83.450181 L 328.04206,83.450181 L 327.38167,84.122491 L 326.39108,83.618251 L 323.25421,81.265161 L 320.28243,83.114021 L 317.31066,85.467111 L 317.64086,89.164831 L 318.63145,89.500981 L 320.77773,90.005221 L 321.27302,90.845601 L 318.63145,91.685991 L 315.98987,92.022151 L 314.50399,93.871011 L 314.17379,96.056021 L 314.50399,97.736801 L 314.83418,103.45145 L 311.20202,105.63646 L 310.54162,105.46838 L 310.54162,101.09836 L 311.86241,98.577191 L 312.5228,96.056021 L 311.69731,95.215631 L 309.71613,96.056021 L 308.72554,100.42605 L 305.91887,101.60259 L 304.10278,103.61953 L 303.93768,104.62799 L 304.59808,105.46838 L 303.93768,108.15763 L 301.62631,108.66186 L 301.62631,109.83841 L 302.4518,112.35959 L 301.29611,118.74655 L 299.64512,122.9485 L 300.30552,127.82276 L 300.80082,128.9993 L 299.97532,131.52047 L 299.64512,132.36086 L 299.31493,135.21819 L 302.94709,141.43707 L 305.91887,148.16019 L 307.40475,153.20252 L 306.57926,158.07678 L 305.58867,164.29567 L 303.11219,169.67416 L 302.782,172.53148 L 299.63336,175.76577 L 298.87439,176.56496 L 303.60852,176.39648 L 326.06196,174.04338 L 332.3357,173.37107 L 332.6659,174.63166 L 340.59064,173.37107 L 350.99186,171.69029 L 356.31867,171.21108 L 354.95311,170.01032 L 355.11821,168.49761 L 357.26449,164.63182 L 359.30759,162.82498 L 359.08057,157.57255 L 360.71152,155.91217 L 361.82534,155.55561 L 362.05235,151.8579 L 363.62078,148.70645 L 364.69392,149.33673 L 364.85902,150.00904 L 365.68451,150.17712 L 367.66569,149.16865 L 367.3355,139.25206 z M 233.03614,71.079311 L 234.92652,70.003941 L 237.7332,69.163551 L 241.36536,66.810461 L 241.36536,65.801991 L 242.02577,65.129681 L 248.13441,64.121221 L 250.61088,62.104281 L 255.06855,59.919271 L 255.23364,58.574645 L 257.21482,55.549242 L 259.0309,54.708852 L 260.3517,52.859995 L 262.66307,50.506904 L 267.12073,47.985736 L 271.90858,47.481502 L 273.06427,48.658047 L 272.73407,49.666515 L 268.93681,50.674982 L 267.45092,53.868463 L 265.13954,54.708852 L 264.64425,57.230021 L 262.16778,60.591581 L 261.83758,63.280831 L 262.66307,63.785061 L 263.65366,62.608511 L 267.28582,59.583111 L 268.60661,60.927731 L 270.91799,60.927731 L 274.21997,61.936201 L 275.70585,63.112751 L 277.19173,66.306231 L 279.99841,69.163551 L 283.96077,68.995471 L 285.44666,67.987011 L 287.09764,69.331631 L 288.74863,69.835861 L 290.06941,68.995471 L 291.2251,68.995471 L 292.87609,67.987011 L 297.00355,64.289291 L 300.47062,63.112751 L 307.23965,62.776591 L 311.86241,60.759661 L 314.50399,59.415031 L 315.98987,59.583111 L 315.98987,65.465841 L 316.48517,65.801991 L 319.45694,66.642381 L 321.43812,66.138151 L 327.71186,64.457371 L 328.86755,63.280831 L 330.35344,63.785061 L 330.35344,71.012411 L 333.65541,74.205891 L 334.9762,74.878201 L 336.29698,75.886671 L 334.9762,76.222831 L 334.1507,75.886671 L 330.35344,75.382441 L 328.20716,76.054751 L 325.89578,75.886671 L 322.59381,77.399371 L 320.77773,77.399371 L 314.83418,76.054751 L 309.55103,76.222831 L 307.56985,78.912071 L 300.47062,79.584381 L 297.99414,80.424771 L 296.83845,83.618251 L 295.51766,84.794801 L 295.02237,84.626721 L 293.53648,82.945941 L 288.91372,85.467111 L 288.25333,85.467111 L 287.09764,83.786331 L 286.27215,83.954411 L 284.29097,88.492511 L 283.30038,92.694461 L 279.47216,101.15297 L 277.80683,99.959661 L 276.40592,98.533461 L 274.77152,87.837041 L 271.03578,86.648551 L 269.63486,84.271571 L 256.79321,81.419181 L 254.22487,80.230701 L 245.81942,77.853711 L 237.41397,76.665221 L 233.03614,71.079311 z" />
  <path
     style="fill:#cccccc"
     id="ND"
     d="M 136.78206,88.550131 L 136.08161,79.755291 L 134.21373,72.148951 L 132.34586,58.124755 L 131.87889,47.903724 L 130.01101,44.338246 L 128.37661,39.108887 L 128.37661,28.412462 L 129.07707,24.371589 L 127.08062,18.654283 L 97.069305,18.067866 L 78.082985,17.395554 L 51.006835,16.05093 L 25.529955,14.092277 L 24.242435,28.887856 L 22.841525,44.575954 L 20.535005,70.513901 L 19.874605,83.139511 L 77.243455,86.886251 L 136.78206,88.550131 z" />
  <path
     style="fill:#cccccc"
     id="SD"
     d="M 138.30557,167.0602 L 137.33158,164.93534 L 135.61463,161.99892 L 137.48252,157.48265 L 138.88343,151.54019 L 136.08161,149.40091 L 135.61463,146.54853 L 136.54859,143.93384 L 138.41647,143.93384 L 138.88343,136.80289 L 138.64995,105.18901 L 138.18297,102.09894 L 133.98025,98.533461 L 132.81283,96.631871 L 132.81283,94.967981 L 134.91419,93.304101 L 136.3151,91.877911 L 136.66533,88.550131 L 77.243455,86.886251 L 19.874615,82.845381 L 19.091605,88.334311 L 17.444285,104.83247 L 16.070465,123.49179 L 14.436085,150.23285 L 30.313035,151.3025 L 50.859685,152.49098 L 69.071505,153.67948 L 93.353915,154.86796 L 104.3277,154.39257 L 106.42906,156.76955 L 111.33223,159.85964 L 112.49966,160.81042 L 116.93587,159.38423 L 120.90512,158.90884 L 123.70692,158.67114 L 125.5748,160.09733 L 130.71147,161.76122 L 133.74676,163.4251 L 134.21373,165.08899 L 135.14767,167.22828 L 137.01556,167.22828 L 138.30557,167.0602 z" />
  <path
     style="fill:#cccccc"
     id="NE"
     d="M 150.32417,211.44016 L 151.7251,214.05484 L 151.4916,216.43182 L 154.05993,220.4727 L 157.32872,224.75127 L 151.02463,224.75127 L 105.96179,224.27586 L 64.635295,222.84968 L 42.337505,222.01774 L 44.088635,198.84215 L 9.999875,195.98977 L 14.436085,150.23285 L 30.313035,151.3025 L 50.859685,152.49098 L 69.071505,153.67948 L 93.353915,154.86796 L 104.3277,154.39257 L 106.42906,156.76955 L 111.33223,159.85964 L 112.49966,160.81042 L 116.93587,159.38423 L 120.90512,158.90884 L 123.70692,158.67114 L 125.5748,160.09733 L 130.71147,161.76122 L 133.74676,163.4251 L 134.21373,165.08899 L 135.14767,167.22828 L 137.01556,167.22828 L 138.64995,167.10943 L 139.81736,172.69534 L 142.61919,180.53938 L 143.55312,185.53105 L 145.88797,189.33422 L 146.58841,194.80128 L 148.22281,199.07985 L 148.4563,205.97311 L 150.43507,211.69229" />
  <path
     style="fill:#cccccc"
     id="IA"
     d="M 234.3203,164.37591 L 234.37868,166.27749 L 236.71353,166.99058 L 237.64746,168.17907 L 238.11443,170.08066 L 242.08366,173.64613 L 242.78412,176.02312 L 242.08366,179.5886 L 240.21579,183.39176 L 239.51533,186.00644 L 237.1805,187.90803 L 235.31261,188.62113 L 229.94246,190.04731 L 229.24201,191.9489 L 228.54156,194.08819 L 229.24201,195.51438 L 231.10988,197.17827 L 230.87641,201.45683 L 229.00852,203.12072 L 228.30808,204.78461 L 228.30808,207.63699 L 226.4402,208.11238 L 224.80579,209.30088 L 224.57232,210.72707 L 224.80579,212.86636 L 223.05466,214.70851 L 219.66914,211.20247 L 218.50171,208.82548 L 210.56323,209.53857 L 200.52338,210.01397 L 174.60658,210.96477 L 160.831,211.20247 L 151.25813,211.44016 L 150.14614,211.56622 L 148.4563,205.97311 L 148.22281,199.07985 L 146.58841,194.80128 L 145.88797,189.33422 L 143.55312,185.53105 L 142.61919,180.53938 L 139.81736,172.69534 L 138.64995,167.10943 L 137.24903,164.8513 L 135.61463,161.99892 L 137.48252,157.48265 L 138.88343,151.54019 L 136.08161,149.40091 L 135.61463,146.54853 L 136.54859,143.93384 L 138.29972,143.93384 L 150.0907,143.93384 L 200.75688,143.22075 L 219.20218,142.50766 L 223.4049,142.38882 L 224.10534,145.83543 L 226.4402,147.49932 L 226.67368,148.92551 L 224.57232,152.49098 L 224.80579,155.81876 L 227.37413,159.85964 L 229.94246,161.04812 L 232.97777,161.52352 L 234.3203,164.37591 z" />
  <path
     style="fill:#cccccc"
     id="IN"
     d="M 286.43827,268.83947 L 286.27316,264.8056 L 286.76846,260.0994 L 289.07984,257.074 L 290.89593,253.04012 L 293.53751,248.67009 L 293.04221,242.61928 L 291.22613,239.76194 L 290.89593,236.40039 L 291.72142,230.68572 L 291.22613,223.45836 L 289.90533,206.81863 L 288.58454,190.8512 L 287.59343,178.66594 L 290.72981,179.59076 L 292.21569,180.59922 L 293.37138,180.26307 L 295.51766,178.24613 L 298.40741,176.56496 L 303.60852,176.39648 L 326.06196,174.04338 L 332.3357,173.37107 L 332.5008,174.54761 L 333.98669,189.84273 L 335.80278,204.12937 L 338.44435,228.50071 L 338.93965,234.38345 L 338.44435,236.73654 L 339.93024,238.24924 L 340.26045,240.26618 L 337.45376,242.28312 L 333.4914,244.13198 L 330.68471,244.46814 L 330.18942,249.17433 L 325.40155,253.2082 L 322.42978,256.90592 L 322.75998,259.25901 L 321.93448,261.44403 L 317.14662,261.44403 L 315.99093,259.76324 L 314.83524,260.60364 L 311.86346,262.28443 L 312.02857,265.81406 L 309.88228,266.3183 L 309.05678,265.14175 L 307.0756,263.46096 L 304.10382,264.97367 L 302.28774,268.33523 L 300.47165,267.49484 L 298.98577,265.47791 L 295.35359,265.98214 L 289.41003,266.99061 L 286.43827,268.83947 z" />
  <path
     style="fill:#cccccc"
     id="IL"
     d="M 286.27316,268.67139 L 286.27316,264.8056 L 286.76846,260.0994 L 289.07984,257.074 L 290.89593,253.04012 L 293.53751,248.67009 L 293.04221,242.61928 L 291.22613,239.76194 L 290.89593,236.40039 L 291.72142,230.68572 L 291.22613,223.45836 L 289.90533,206.81863 L 288.58454,190.8512 L 287.75854,178.74997 L 286.43725,177.90998 L 285.61175,175.22073 L 284.29097,171.35494 L 282.63998,169.50608 L 281.1541,166.81684 L 280.91556,161.10998 L 270.80229,162.47432 L 243.01763,164.25705 L 234.1452,163.81138 L 234.37868,166.27749 L 236.71353,166.99058 L 237.64746,168.17907 L 238.11443,170.08066 L 242.08366,173.64613 L 242.78412,176.02312 L 242.08366,179.5886 L 240.21579,183.39176 L 239.51533,186.00644 L 237.1805,187.90803 L 235.31261,188.62113 L 229.94246,190.04731 L 229.24201,191.9489 L 228.54156,194.08819 L 229.24201,195.51438 L 231.10988,197.17827 L 230.87641,201.45683 L 229.00852,203.12072 L 228.30808,204.78461 L 228.30808,207.63699 L 226.4402,208.11238 L 224.80579,209.30088 L 224.57232,210.72707 L 224.80579,212.86636 L 223.05466,214.23311 L 222.00399,217.14493 L 222.47096,220.94809 L 224.80579,228.55444 L 232.27732,236.39848 L 237.88094,240.20166 L 237.64746,244.71792 L 238.5814,246.14412 L 245.11898,246.61951 L 247.92078,248.04571 L 247.22034,251.84887 L 244.88549,258.02903 L 244.18502,261.35681 L 246.51988,265.39767 L 253.05745,270.86474 L 257.72715,271.57783 L 259.82851,276.8072 L 261.92987,280.13497 L 260.99593,283.22504 L 262.63032,287.50361 L 264.4982,289.6429 L 267.52689,289.29107 L 268.1123,287.15999 L 270.42369,285.31114 L 272.56997,284.63882 L 275.37664,285.98345 L 279.00883,287.32807 L 280.16451,286.99191 L 280.32961,284.63882 L 279.00883,282.11764 L 279.33902,279.76454 L 281.3202,278.25185 L 283.96178,277.57954 L 285.61277,276.90723 L 284.78728,275.05836 L 284.12688,273.04143 L 285.28257,272.20104 L 286.27316,268.67139 z" />
  <path
     style="fill:#cccccc"
     id="MN"
     d="M 136.54859,88.550131 L 136.08161,79.755291 L 134.21373,72.148951 L 132.34586,58.124755 L 131.87889,47.903724 L 130.01101,44.338246 L 128.37661,39.108887 L 128.37661,28.412462 L 129.07707,24.371589 L 127.2174,18.703507 L 157.99065,18.740177 L 158.32084,10.168203 L 158.98123,10.000125 L 161.29262,10.504359 L 163.2738,11.344749 L 164.09929,17.059398 L 165.58517,23.446359 L 167.23615,25.127138 L 172.18912,25.127138 L 172.51931,26.63984 L 178.95815,26.975995 L 178.95815,29.161008 L 183.9111,29.161008 L 184.2413,27.816385 L 185.39699,26.63984 L 187.70837,25.967528 L 189.02916,26.975995 L 192.00092,26.975995 L 195.9633,29.665242 L 201.41154,32.186411 L 203.88801,32.690645 L 204.38332,31.682177 L 205.86919,31.177943 L 206.3645,34.203346 L 209.00607,35.547969 L 209.50136,35.043736 L 210.82216,35.211814 L 210.82216,37.396827 L 213.46373,38.405294 L 216.60059,38.405294 L 218.25159,37.564904 L 221.55356,34.203346 L 224.19512,33.699112 L 225.02062,35.547969 L 225.51592,36.892593 L 226.50651,36.892593 L 227.4971,36.052203 L 236.57752,35.716047 L 238.3936,38.909528 L 239.054,38.909528 L 239.78278,37.782206 L 244.3171,37.396827 L 243.69199,39.766774 L 239.66951,41.676827 L 230.2271,45.899171 L 225.35082,47.985736 L 222.21394,50.674982 L 219.73747,54.372697 L 217.4261,58.406567 L 215.61001,59.246961 L 210.98726,64.457371 L 209.66647,64.625451 L 206.1994,67.818931 L 206.90201,68.383691 L 204.02567,71.198161 L 203.79218,74.050541 L 203.79218,82.845381 L 202.62475,84.509271 L 197.2546,88.550131 L 194.91977,94.730291 L 195.38673,94.967981 L 197.95506,97.107271 L 198.65552,100.43505 L 196.78763,103.76282 L 196.78763,107.80369 L 197.2546,114.69695 L 200.28991,117.78704 L 203.79218,117.78704 L 205.66007,121.11481 L 209.16233,121.5902 L 213.13156,127.53266 L 220.36959,131.81123 L 222.47096,134.66361 L 223.4049,142.50766 L 219.20218,142.50766 L 200.75688,143.22075 L 150.0907,143.93384 L 138.29972,143.93384 L 138.88343,136.80289 L 138.64995,105.18901 L 138.18297,102.09894 L 133.98025,98.533461 L 132.81283,96.631871 L 132.81283,94.967981 L 134.91419,93.304101 L 136.3151,91.877911 L 136.54859,88.550131 z" />
  <path
     style="fill:#cccccc"
     id="WI"
     d="M 280.84213,161.28582 L 280.989,156.90024 L 279.33801,152.19406 L 278.67762,145.8071 L 277.52193,143.28593 L 278.51252,140.09245 L 279.33801,137.06704 L 280.8239,134.3778 L 280.1635,130.84816 L 279.50311,127.15045 L 279.99841,125.30159 L 281.97959,122.78042 L 282.14469,119.9231 L 281.31919,118.57847 L 281.97959,115.88923 L 282.47488,112.52767 L 285.28157,106.64493 L 288.25333,99.585661 L 288.41843,97.232571 L 288.08823,96.224101 L 287.26274,96.728331 L 282.97018,103.28337 L 280.1635,107.48532 L 278.18232,109.33418 L 277.35683,111.68728 L 275.87094,112.52767 L 274.71526,114.5446 L 273.22937,114.20845 L 273.06427,112.35959 L 274.38506,109.83841 L 276.53134,104.96415 L 278.34742,103.28337 L 279.47216,100.90085 L 277.80683,99.959661 L 276.40592,98.533461 L 274.77152,87.837041 L 271.03578,86.648551 L 269.63486,84.271571 L 256.79321,81.419181 L 254.22487,80.230701 L 245.81942,77.853711 L 237.41397,76.665221 L 233.15583,71.045851 L 232.61516,72.357031 L 231.45946,72.188961 L 230.79907,71.012411 L 227.9924,70.172021 L 226.8367,70.340101 L 225.02062,71.348571 L 224.03003,70.676251 L 224.69043,68.659321 L 226.6716,65.465841 L 227.82729,64.289291 L 225.84611,62.776591 L 223.69984,63.616981 L 220.72807,65.633921 L 213.13353,68.995471 L 210.16175,69.667791 L 207.18999,69.163551 L 206.18739,68.250441 L 204.02567,71.198161 L 203.79218,74.050541 L 203.79218,82.845381 L 202.62475,84.509271 L 197.2546,88.550131 L 194.91977,94.730291 L 195.38673,94.967981 L 197.95506,97.107271 L 198.65552,100.43505 L 196.78763,103.76282 L 196.78763,107.80369 L 197.2546,114.69695 L 200.28991,117.78704 L 203.79218,117.78704 L 205.66007,121.11481 L 209.16233,121.5902 L 213.13156,127.53266 L 220.36959,131.81123 L 222.47096,134.66361 L 223.4049,142.38882 L 224.10534,145.83543 L 226.4402,147.49932 L 226.67368,148.92551 L 224.57232,152.49098 L 224.80579,155.81876 L 227.37413,159.85964 L 229.94246,161.04812 L 232.97777,161.52352 L 234.23275,164.13822 L 243.60135,164.1382 L 270.80229,162.47432 L 280.84213,161.28582 z" />
  <path
     style="fill:#cccccc"
     id="MO"
     d="M 222.93792,214.53026 L 219.66914,211.20247 L 218.50171,208.82548 L 210.56323,209.53857 L 200.52338,210.01397 L 174.60658,210.96477 L 160.831,211.20247 L 152.7758,211.32131 L 150.44092,211.44016 L 151.7251,214.05484 L 151.4916,216.43182 L 154.05993,220.4727 L 157.21196,224.75127 L 160.36402,227.60364 L 162.69888,227.84134 L 164.09977,228.79214 L 164.09977,231.88221 L 162.23191,233.5461 L 161.76493,235.92309 L 163.86629,239.48857 L 166.43463,242.57864 L 169.00296,244.48023 L 170.40386,256.60283 L 169.70341,293.32722 L 169.93689,298.20004 L 170.40386,305.33098 L 194.2193,304.85559 L 218.03475,304.1425 L 239.28186,303.1917 L 250.48911,302.71631 L 252.357,305.80639 L 251.89003,308.18337 L 248.62124,311.03575 L 247.92078,314.12582 L 254.22487,314.60122 L 259.36154,313.88813 L 261.4629,307.23257 L 261.31696,301.37926 L 264.26472,299.86393 L 265.66562,298.20004 L 267.76698,297.01155 L 268.00047,293.68377 L 268.93442,291.78218 L 267.5335,289.25664 L 264.4982,289.6429 L 262.63032,287.50361 L 260.99593,283.22504 L 261.92987,280.13497 L 259.82851,276.8072 L 257.72715,271.57783 L 253.05745,270.86474 L 246.51988,265.39767 L 244.18502,261.35681 L 244.88549,258.02903 L 247.22034,251.84887 L 247.92078,248.04571 L 245.11898,246.61951 L 238.5814,246.14412 L 237.64746,244.71792 L 237.88094,240.20166 L 232.27732,236.39848 L 224.80579,228.55444 L 222.47096,220.94809 L 222.00399,217.14493 L 222.93792,214.53026 z" />
  <path
     style="fill:#cccccc"
     id="KS"
     d="M 169.70341,293.68377 L 156.16124,294.39686 L 108.7642,293.92148 L 62.767455,291.78217 L 38.105595,290.47484 L 42.337505,222.01774 L 64.635295,222.84968 L 105.96179,224.27586 L 151.02463,224.75127 L 157.21196,224.75127 L 160.36402,227.60364 L 162.69888,227.84134 L 164.09977,228.79214 L 164.09977,231.88221 L 162.23191,233.5461 L 161.76493,235.92309 L 163.86629,239.48857 L 166.43463,242.57864 L 169.00296,244.48023 L 170.40386,256.60283 L 169.70341,293.68377 z" />
  <path
     id="ND_SD"
     style="fill:#000000;fill-opacity:0;stroke:#ffffff;stroke-width:1.06612186pt;stroke-opacity:1"
     d="M 20.039705,83.083071 L 77.243455,86.886251 L 136.78206,88.550131" />
  <path
     id="ND_MN"
     style="fill:#000000;fill-opacity:0;stroke:#ffffff;stroke-width:1.06612186pt;stroke-opacity:1"
     d="M 127.20919,18.904532 L 129.07707,24.371587 L 128.37661,28.41246 L 128.37661,39.108885 L 130.01101,44.338244 L 131.87889,47.903723 L 132.34586,58.124754 L 134.21373,72.148951 L 136.08161,79.755291 L 136.54859,88.550131" />
  <path
     id="SD_MN"
     style="fill:#000000;fill-opacity:0;stroke:#ffffff;stroke-width:1.06612186pt;stroke-opacity:1"
     d="M 136.54859,88.550131 L 136.3151,91.877911 L 134.91419,93.304101 L 132.81283,94.967981 L 132.81283,96.631871 L 133.98025,98.533461 L 138.18297,102.09894 L 138.64995,105.18901 L 138.88343,136.80289 L 138.41647,143.93384" />
  <path
     id="SD_IA"
     style="fill:#000000;fill-opacity:0;stroke:#ffffff;stroke-width:1.06612186pt;stroke-opacity:1"
     d="M 138.41647,143.93384 L 136.54859,143.93384 L 135.61463,146.54853 L 136.08161,149.40091 L 138.88343,151.54019 L 137.48252,157.48265 L 135.61463,161.99892 L 137.24903,164.8513 L 138.88343,167.22828" />
  <path
     id="SD_NE"
     style="fill:#000000;fill-opacity:0;stroke:#ffffff;stroke-width:1.06612186pt;stroke-opacity:1"
     d="M 138.88343,167.22828 L 137.01556,167.22828 L 135.14767,167.22828 L 134.21373,165.08899 L 133.74676,163.4251 L 130.71147,161.76122 L 125.5748,160.09733 L 123.70692,158.67114 L 120.90512,158.90883 L 116.93587,159.38423 L 112.49966,160.81042 L 111.33223,159.85963 L 106.42906,156.76955 L 104.3277,154.39257 L 93.353915,154.86796 L 69.071505,153.67948 L 50.859685,152.49098 L 30.313035,151.30249 L 14.436085,150.58939" />
  <path
     id="MN_IA"
     style="fill:#000000;fill-opacity:0;stroke:#ffffff;stroke-width:1.06612186pt;stroke-opacity:1"
     d="M 138.18297,143.93384 L 150.0907,143.93384 L 200.75688,143.22075 L 219.20218,142.50766 L 223.4049,142.50766" />
  <path
     id="MN_WI"
     style="fill:#000000;fill-opacity:0;stroke:#ffffff;stroke-width:1.06612186pt;stroke-opacity:1"
     d="M 223.4049,142.50766 L 222.47096,134.66361 L 220.36959,131.81123 L 213.13156,127.53266 L 209.16233,121.5902 L 205.66007,121.11481 L 203.79218,117.78704 L 200.28991,117.78704 L 197.2546,114.69695 L 196.78763,107.80369 L 196.78763,103.76282 L 198.65552,100.43505 L 197.95506,97.107271 L 195.38674,94.967981 L 194.91977,94.730281 L 197.2546,88.550131 L 202.62475,84.509261 L 203.79218,82.845371 L 203.79218,74.050541 L 204.02567,71.198161 L 206.94423,68.108081" />
  <path
     id="WI_MI"
     style="fill:#000000;fill-opacity:0;stroke:#ffffff;stroke-width:1.06612186pt;stroke-opacity:1"
     d="M 233.03614,71.079311 L 237.41397,76.665221 L 245.81942,77.853711 L 254.22487,80.230691 L 256.79321,81.419181 L 269.63486,84.271571 L 271.03578,86.648551 L 274.77152,87.837041 L 276.40592,98.533461 L 277.80683,99.959651 L 279.44122,101.20756" />
  <path
     id="IA_WI"
     style="fill:#000000;fill-opacity:0;stroke:#ffffff;stroke-width:1.06612186pt;stroke-opacity:1"
     d="M 223.4049,142.26996 L 224.10534,145.83543 L 226.4402,147.49932 L 226.67368,148.92551 L 224.57232,152.49098 L 224.80579,155.81876 L 227.37413,159.85963 L 229.94246,161.04812 L 232.97777,161.52351 L 234.3203,164.37591" />
  <path
     id="WI_IL"
     style="fill:#000000;fill-opacity:0;stroke:#ffffff;stroke-width:1.06612186pt;stroke-opacity:1"
     d="M 234.1452,163.90051 L 243.95158,164.13819 L 270.80229,162.47431 L 280.84213,161.28582" />
  <path
     id="IA_IL"
     style="fill:#000000;fill-opacity:0;stroke:#ffffff;stroke-width:1.06612186pt;stroke-opacity:1"
     d="M 234.1452,163.72223 L 234.37868,166.27749 L 236.71353,166.99058 L 237.64746,168.17907 L 238.11443,170.08065 L 242.08366,173.64613 L 242.78412,176.02311 L 242.08366,179.58859 L 240.21579,183.39176 L 239.51533,186.00644 L 237.1805,187.90803 L 235.31261,188.62113 L 229.94246,190.04731 L 229.24201,191.9489 L 228.54156,194.08818 L 229.24201,195.51438 L 231.10988,197.17827 L 230.87641,201.45683 L 229.00852,203.12072 L 228.30808,204.78461 L 228.30808,207.63699 L 226.4402,208.11238 L 224.80579,209.30088 L 224.57232,210.72707 L 224.80579,212.86635 L 222.93793,214.64908" />
  <path
     id="IA_MO"
     style="fill:#000000;fill-opacity:0;stroke:#ffffff;stroke-width:1.06612186pt;stroke-opacity:1"
     d="M 223.17141,214.76793 L 219.66914,211.20246 L 218.50171,208.82548 L 210.56323,209.53857 L 200.52338,210.01397 L 174.60658,210.96477 L 160.831,211.20246 L 151.25813,211.44016 L 149.85721,211.44016" />
  <path
     id="NE_IA"
     style="fill:#000000;fill-opacity:0;stroke:#ffffff;stroke-width:1.06612186pt;stroke-opacity:1"
     d="M 150.43507,211.69228 L 148.4563,205.97311 L 148.22281,199.07985 L 146.58841,194.80128 L 145.88797,189.33422 L 143.55312,185.53104 L 142.61919,180.53938 L 139.81736,172.69533 L 138.41647,166.99058" />
  <path
     id="NE_KS"
     style="fill:#000000;fill-opacity:0;stroke:#ffffff;stroke-width:1.06612186pt;stroke-opacity:1"
     d="M 42.220755,221.89889 L 64.635295,222.84968 L 105.96179,224.27586 L 151.02463,224.75127 L 157.32872,224.75127" />
  <path
     id="NE_MO"
     style="fill:#000000;fill-opacity:0;stroke:#ffffff;stroke-width:1.06612186pt;stroke-opacity:1"
     d="M 157.32872,224.75127 L 154.05993,220.4727 L 151.4916,216.43182 L 151.7251,214.05484 L 150.32417,211.44016" />
  <path
     id="KS_MO"
     style="fill:#000000;fill-opacity:0;stroke:#ffffff;stroke-width:1.06612186pt;stroke-opacity:1"
     d="M 157.09524,224.75127 L 160.36402,227.60364 L 162.69888,227.84134 L 164.09977,228.79214 L 164.09977,231.88221 L 162.23191,233.5461 L 161.76493,235.92309 L 163.86629,239.48856 L 166.43463,242.57864 L 169.00296,244.48023 L 170.40386,256.60283 L 169.70341,293.68377" />
  <path
     id="MO_IL"
     style="fill:#000000;fill-opacity:0;stroke:#ffffff;stroke-width:1.06612186pt;stroke-opacity:1"
     d="M 267.76698,289.4052 L 264.4982,289.6429 L 262.63032,287.50361 L 260.99593,283.22504 L 261.92987,280.13497 L 259.82851,276.8072 L 257.72715,271.57783 L 253.05745,270.86474 L 246.51988,265.39767 L 244.18502,261.35681 L 244.88549,258.02903 L 247.22034,251.84887 L 247.92078,248.0457 L 245.11898,246.61951 L 238.5814,246.14412 L 237.64746,244.71792 L 237.88094,240.20166 L 232.27732,236.39848 L 224.80579,228.55444 L 222.47096,220.94809 L 222.00399,217.14492 L 223.17141,213.81714" />
  <path
     id="IL_IN"
     style="fill:#000000;fill-opacity:0;stroke:#ffffff;stroke-width:1.06612186pt;stroke-opacity:1"
     d="M 287.75905,178.74957 L 288.58454,190.8512 L 289.90533,206.81863 L 291.22613,223.45836 L 291.72142,230.68572 L 290.89593,236.40038 L 291.22613,239.76194 L 293.04221,242.61928 L 293.53751,248.67009 L 290.89593,253.04012 L 289.07984,257.074 L 286.76846,260.0994 L 286.27316,264.8056 L 286.27316,268.67139" />
  <path
     id="IN_KY"
     style="fill:#000000;fill-opacity:0;stroke:#ffffff;stroke-width:1.06612186pt;stroke-opacity:1"
     d="M 286.43827,268.83947 L 289.41003,266.99061 L 295.35359,265.98214 L 298.98577,265.47791 L 300.47165,267.49484 L 302.28774,268.33523 L 304.10382,264.97367 L 307.0756,263.46096 L 309.05678,265.14175 L 309.88228,266.3183 L 312.02857,265.81406 L 311.86346,262.28443 L 314.83524,260.60364 L 315.99093,259.76324 L 317.14662,261.44403 L 321.93448,261.44403 L 322.75998,259.25901 L 322.42978,256.90592 L 325.40155,253.2082 L 330.18942,249.17433 L 330.68471,244.46813 L 333.4914,244.13198 L 337.45376,242.28312 L 340.26045,240.26618 L 339.93024,238.24924 L 338.44435,236.73654 L 338.93965,234.38345" />
  <path
     id="IN_OH"
     style="fill:#000000;fill-opacity:0;stroke:#ffffff;stroke-width:1.06612186pt;stroke-opacity:1"
     d="M 338.93965,234.38345 L 338.44435,228.50071 L 335.80278,204.12937 L 333.98669,189.84272 L 332.5008,174.54761" />
  <path
     id="IN_MI"
     style="fill:#000000;fill-opacity:0;stroke:#ffffff;stroke-width:1.06612186pt;stroke-opacity:1"
     d="M 332.5008,174.54761 L 332.3357,173.37107 L 326.06196,174.04338 L 303.60852,176.39648 L 298.82067,176.39648" />
  <path
     id="MI_OH"
     style="fill:#000000;fill-opacity:0;stroke:#ffffff;stroke-width:1.06612186pt;stroke-opacity:1"
     d="M 332.83099,174.71569 L 340.59064,173.37107 L 350.99186,171.69029 L 356.36344,171.0672" />
  <path
     id="OH_KY"
     style="fill:#000000;fill-opacity:0;stroke:#ffffff;stroke-width:1.06612186pt;stroke-opacity:1"
     d="M 339.10475,234.55153 L 343.23222,234.21537 L 345.7087,233.37498 L 348.68048,235.05576 L 350.33146,239.59386 L 356.27502,239.93002 L 358.0911,241.77889 L 360.23738,241.94697 L 362.71387,240.43426 L 365.85074,240.9385 L 367.17153,242.4512 L 369.97821,239.76194 L 371.7943,238.41732 L 373.44528,238.41732 L 374.10567,241.27465 L 375.92177,242.28312 L 379.55393,244.46813" />
</svg>
